<?xml version="1.0" standalone="no"?> <!DOCTYPE svg PUBLIC "-//W3C//DTD SVG 1.0//EN" "http://www.w3.org/TR/2001/REC-SVG-20010904/DTD/svg10.dtd" > <svg xmlns="http://www.w3.org/2000/svg" width="100%" height="100%">
<defs >
<font id="display" horiz-adv-x="514" ><font-face
    font-family="Display"
    units-per-em="1000"
    panose-1="0 0 0 0 0 0 0 0 0 0"
    ascent="734"
    descent="265"
    alphabetic="0" />
<missing-glyph horiz-adv-x="500" />
<glyph unicode=" " glyph-name="space" horiz-adv-x="210" />
<glyph unicode="!" glyph-name="exclam" horiz-adv-x="234" d="M156 24Q156 9 145 -3T117 -15Q101 -15 91 -4T80 22Q80 37 91 49T119 61Q135 61 145 50T156 24ZM164 595Q160 481 150 366T123 146Q123 144 117 144T111 146Q111 197 109 254T103 369T94 480T84 580Q83
588 95 593T123 601T151 602T164 595Z" />
<glyph unicode="&quot;" glyph-name="quotedbl" horiz-adv-x="301" d="M133 465Q130 462 126 464T124 470L260 667Q262 670 268 668T279 662T287 653T289 645L133 465ZM29 465Q27 462 23 463T20 469L147 672Q149 675 155 673T166 668T176 659T177 651L29 465Z" />
<glyph unicode="#" glyph-name="numbersign" horiz-adv-x="685" d="M351 381L244 380L236 271L229 162L335 161H388H425Q434 161 441 162L450 272L457 380L351 381ZM472 380Q472 372 471 363Q470 355 470 345T468 325L464 271L457 162L619 164Q622 164 622 155T619
145Q573 146 537 146H456L442 -69Q440 -71 432 -71T424 -67L440 147L335 148L228 147L213 -69Q212 -71 204 -71T196 -67L212 147L50 145Q48 146 48 155T50 164L213 162Q213 170 214 179Q215 187 215 196T217 217Q219 241 221 272L228 380L66 378Q64 380 64 388T66
397L229 395Q230 411 231 429Q232 444 233 463T236 503L244 611Q244 613 252 613T261 609L245 395L351 394L458 395L472 611Q473 613 481 613T490 609L474 395L635 397Q638 397 638 389T635 378L472 380Z" />
<glyph unicode="$" glyph-name="dollar" horiz-adv-x="435" d="M323 104Q323 127 315 145T294 179T264 207T227 233L212 4H213Q259 4 291 30T323 104ZM232 538Q190 537 162 515T133 451Q133 410 158 383T219 334L232 538V538ZM377 151Q377 117 365 86T331 32T278
-5T210 -20L207 -69Q205 -71 197 -71T189 -67L193 -19Q153 -17 120 -2T56 39Q54 40 54 50T55 77T57 114T60 157Q60 159 66 159T72 158Q77 95 107 54T194 5L204 123Q208 175 213 241Q188 256 163 272T119 307T87 349T75 405Q75 434 86 461T119 510T169 546T234 561L237
611Q237 613 245 613T255 609L251 561Q283 559 305 552T348 533Q353 530 356 504T359 434Q359 432 354 432T347 433Q339 478 315 505T249 537L241 431L233 325Q258 310 283 294T330 257T364 211T377 151Z" />
<glyph unicode="%" glyph-name="percent" horiz-adv-x="529" d="M426 160Q426 213 413 239T377 266Q354 266 335 232T316 132Q316 78 329 52T365 25Q388 25 407 59T426 160ZM212 422Q212 475 198 501T162 528Q140 528 121 494T101 393Q101 340 115 314T151 287Q173
287 192 321T212 422ZM483 184Q483 136 460 92T399 18Q380 4 363 -5T332 -14Q320 -14 307 -6T284 17T266 55T259 108Q259 156 282 200T344 274Q362 288 379 297T410 306Q422 306 435 298T458 275T476 237T483 184ZM270 274L89 -30Q87 -32 79 -29T73 -24L257 278L439
583Q441 585 448 582T455 576L270 274ZM268 446Q268 398 245 354T184 280Q165 266 148 257T117 248Q105 248 92 256T69 279T52 316T45 369Q45 418 68 462T129 535Q148 549 165 558T196 567Q208 567 221 559T244 536T261 499T268 446Z" />
<glyph unicode="&amp;" glyph-name="ampersand" horiz-adv-x="688" d="M384 103Q366 128 348 156T309 211T262 262T204 307Q159 290 133 256T107 178Q107 149 117 124T147 79T193 50T251 39Q297 39 326 54T384 103ZM317 455Q317 493 298 518T244 543Q209 543 193
524T177 469Q177 444 195 416T260 350Q296 371 306 397T317 455ZM670 39Q647 19 614 3T549 -13Q523 -13 502 -6T462 15T427 47T395 87Q359 45 315 15T209 -15Q186 -15 157 -6T103 22T59 70T41 141Q41 198 79 243T189 317Q151 349 136 379T120 436Q120 488 153 524T252
560Q276 560 298 552T337 531T365 498T375 457Q375 423 350 393T270 339Q297 323 319 303T362 259T399 212T432 164Q461 204 480 242T500 309Q500 322 484 330T428 341Q426 341 426 347T428 353Q455 349 484 348T551 346Q564 346 579 346T610 348T638 350T661 353Q665
353 665 347T662 341Q636 340 616 336T576 319T536 283T489 220L442 150Q459 124 475 102T509 62T544 35T583 25Q607 25 625 30T665 49Q667 50 670 46T670 39Z" />
<glyph unicode="&apos;" glyph-name="quotesingle" horiz-adv-x="211" d="M28 469Q25 466 21 468T20 474L161 665Q163 668 169 666T180 660T188 650T189 642L28 469Z" />
<glyph unicode="(" glyph-name="parenleft" horiz-adv-x="380" d="M426 -285Q428 -287 426 -292T421 -296Q357 -265 300 -215T200 -98T131 51T105 227Q105 321 130 403T199 552T300 669T421 750Q423 751 425 746T426 739Q376 703 332 655T256 544T204 403T185
227Q185 130 204 52T255 -90T332 -201T426 -285Z" />
<glyph unicode=")" glyph-name="parenright" horiz-adv-x="380" d="M275 227Q275 133 250 51T181 -98T80 -215T-41 -296Q-43 -297 -45 -292T-46 -285Q4 -249 48 -201T124 -90T176 51T195 227Q195 324 176 402T125 544T48 655T-46 739Q-48 741 -46 746T-41 750Q23
719 80 669T180 552T249 403T275 227Z" />
<glyph unicode="*" glyph-name="asterisk" horiz-adv-x="284" d="M174 499L207 397Q208 395 204 393T197 392L134 478L47 415Q45 413 41 417T39 423L101 509L14 572Q12 574 14 578T19 582L121 550L154 652Q155 655 160 654T165 650V544H273Q276 544 276 539T275
533L174 499Z" />
<glyph unicode="+" glyph-name="plus" horiz-adv-x="575" d="M294 222L297 -9Q297 -11 288 -11T278 -9L281 222L50 219Q47 219 47 228T50 238L281 235L278 467Q278 469 287 469T297 467L294 235L525 238Q527 238 527 229T525 219L294 222Z" />
<glyph unicode="," glyph-name="comma" horiz-adv-x="196" d="M151 -16Q151 -58 120 -86T40 -114Q37 -114 37 -108T39 -102Q63 -102 78 -97T103 -84T115 -66T119 -46Q119 -32 111 -23T84 -4Q72 2 65 8T58 27Q58 40 67 48T91 56Q113 56 132 38T151 -16Z" />
<glyph unicode="-" glyph-name="hyphen" horiz-adv-x="380" d="M193 236L71 206Q68 206 66 211T62 222T61 233T65 238L189 265L312 296Q315 297 317 293T321 282T322 270T318 263L193 236Z" />
<glyph unicode="." glyph-name="period" horiz-adv-x="196" d="M136 24Q136 9 125 -3T97 -15Q81 -15 71 -4T60 22Q60 37 71 49T99 61Q115 61 125 50T136 24Z" />
<glyph unicode="/" glyph-name="slash" horiz-adv-x="326" d="M13 -328Q12 -331 6 -329T1 -324L321 715Q323 718 329 716T334 711L13 -328Z" />
<glyph unicode="0" glyph-name="zero" horiz-adv-x="586" d="M456 205Q456 268 441 314T402 390T346 434T284 449Q217 449 174 398T131 253Q131 190 146 144T185 68T241 24T303 9Q370 9 413 60T456 205ZM531 237Q531 186 513 141T461 61T382 6T282 -15Q234 -15
193 4T121 55T74 130T56 221Q56 271 74 317T126 397T205 452T305 473Q353 473 394 454T466 403T513 328T531 237Z" />
<glyph unicode="1" glyph-name="one" horiz-adv-x="365" d="M308 7Q310 7 310 1T307 -5Q299 -4 284 -3T253 -2T220 -1T192 0Q177 0 158 0T120 -1T85 -3T57 -5Q54 -6 54 0T57 7Q81 10 98 13T126 25T142 53T147 103V355Q147 387 142 405T126 432T98 445T57 451Q55
451 55 457T57 463Q68 461 84 461T120 459T158 458T192 458Q203 458 219 458T252 459T284 461T307 463Q310 464 310 458T308 451Q283 449 266 445T239 431T223 403T218 355V103Q218 73 223 55T238 27T266 13T308 7Z" />
<glyph unicode="2" glyph-name="two" horiz-adv-x="476" d="M431 137Q432 128 431 109T429 70T425 33T422 10Q420 1 417 -1T406 -4Q394 -4 377 -4T338 -2T294 -1T248 0Q185 0 138 -1T45 -5Q43 -5 42 -3T39 3T38 10T39 14Q102 48 150 81T231 150T280 222T297 300Q297
359 268 390T194 422Q159 422 132 408T79 365Q77 363 74 367T72 375Q104 420 142 446T226 473Q259 473 285 462T330 431T358 386T368 332Q368 294 349 256T299 183T230 117T154 65H305Q341 65 362 67T396 77T413 99T420 137Q420 138 425 138T431 137Z" />
<glyph unicode="3" glyph-name="three" horiz-adv-x="403" d="M353 27Q353 -5 335 -40T278 -105T179 -154T36 -174Q33 -174 33 -168T33 -162Q105 -153 151 -134T224 -91T261 -39T272 15Q272 40 259 62T222 99T163 122T84 123Q82 123 80 126T77 134T75 142T77 146Q127
161 161 182T218 228T249 279T259 331Q259 366 236 393T170 420Q137 420 104 400T44 353Q43 352 40 356T38 363Q54 384 73 404T113 439T157 463T203 473Q230 473 254 463T296 436T324 395T335 345Q335 298 298 251T178 174Q265 170 309 128T353 27Z" />
<glyph unicode="4" glyph-name="four" horiz-adv-x="489" d="M284 374L55 83H284V374ZM473 32Q459 32 427 32T356 35V-54Q356 -84 361 -102T376 -130T404 -144T446 -150Q447 -150 447 -156T445 -162Q437 -161 422 -160T390 -158T357 -157T329 -156Q314 -156 296
-156T258 -157T223 -159T195 -162Q192 -162 192 -156T194 -150Q218 -147 235 -144T263 -131T279 -104T284 -54V36H262Q230 36 196 36T128 35T64 33T11 30Q9 30 6 39T5 50L347 488Q348 490 351 490T356 487V83H473V32V32Z" />
<glyph unicode="5" glyph-name="five" horiz-adv-x="405" d="M358 508Q356 437 338 409T287 380Q268 380 252 384T219 395T187 405T154 410Q131 410 116 387T101 336Q101 324 104 314T121 292T160 265T232 227Q295 196 324 153T353 59Q353 -22 283 -84T74 -174Q71
-174 70 -169T70 -162Q109 -152 147 -135T215 -93T263 -38T282 33Q282 54 277 72T259 107T225 138T171 169Q119 194 92 218T65 284Q65 303 71 331T86 379Q108 433 130 456T179 479Q191 479 204 475T233 466T266 456T303 452Q322 452 331 464T347 509Q347 510 352
510T358 508Z" />
<glyph unicode="6" glyph-name="six" horiz-adv-x="511" d="M491 649Q395 612 328 562T218 453T156 332T136 208Q136 162 147 124T177 59T223 18T279 3Q331 3 359 45T388 151Q388 214 359 253T276 293Q262 293 247 288T222 277Q220 276 217 279T215 285Q234 305
262 318T318 332Q355 332 382 318T428 282T456 231T465 174Q465 135 449 101T405 41T340 0T263 -15Q212 -15 174 3T109 53T70 124T56 207Q56 267 81 333T160 460T295 574T487 660Q490 662 491 657T491 649Z" />
<glyph unicode="7" glyph-name="seven" horiz-adv-x="461" d="M442 443Q409 381 368 303T285 143T202 -21T125 -173Q123 -176 117 -175T103 -171T90 -165T86 -158Q129 -83 171 -8T252 137T325 271T387 388H183Q147 388 125 385T91 372T74 348T68 308Q68 307 63
307T56 309Q56 318 57 338T59 381T62 423T66 448Q68 457 71 459T82 461Q105 461 148 460T238 458Q269 458 295 458T343 459T387 460T432 463Q433 463 435 460T439 454T442 447T442 443Z" />
<glyph unicode="8" glyph-name="eight" horiz-adv-x="497" d="M382 131Q382 164 369 189T335 236T287 274T232 309Q178 283 150 245T122 146Q122 111 133 86T163 43T205 17T251 8Q314 8 348 43T382 131ZM366 512Q366 567 335 601T255 636Q208 636 180 607T151
529Q151 501 162 479T191 437T233 402T283 370Q323 396 344 431T366 512ZM442 174Q442 134 427 100T386 40T322 0T240 -15Q203 -15 169 -3T110 30T69 80T54 146Q54 203 94 248T207 324Q183 339 162 355T124 391T98 433T88 485Q88 524 102 556T142 611T200 646T273
659Q305 659 333 648T382 618T415 573T428 517Q428 464 397 427T305 356Q331 339 356 322T400 282T430 234T442 174Z" />
<glyph unicode="9" glyph-name="nine" horiz-adv-x="520" d="M464 258Q464 198 443 136T375 16T252 -91T64 -174Q60 -175 59 -170T60 -163Q156 -126 219 -78T318 25T369 141T384 263Q384 311 373 346T343 406T299 442T246 454Q188 454 159 411T130 299Q130 236
162 198T248 160Q263 160 277 164T300 173Q303 175 306 171T307 165Q288 145 259 132T204 118Q167 118 139 132T92 168T63 219T53 276Q53 315 68 350T111 413T176 456T258 473Q307 473 345 456T409 409T450 340T464 258Z" />
<glyph unicode=":" glyph-name="colon" horiz-adv-x="196" d="M136 22Q136 7 125 -5T97 -17Q81 -17 71 -6T60 20Q60 35 71 47T99 59Q115 59 125 48T136 22ZM136 323Q136 308 125 296T97 284Q81 284 71 295T60 321Q60 336 71 348T99 360Q115 360 125 349T136 323Z" />
<glyph unicode=";" glyph-name="semicolon" horiz-adv-x="196" d="M151 -16Q151 -58 120 -86T40 -114Q37 -114 37 -108T39 -102Q63 -102 78 -97T103 -84T115 -66T119 -46Q119 -32 111 -23T84 -4Q72 2 65 8T58 27Q58 40 67 48T91 56Q113 56 132 38T151 -16ZM136
323Q136 308 125 296T97 284Q81 284 71 295T60 321Q60 336 71 348T99 360Q115 360 125 349T136 323Z" />
<glyph unicode="&lt;" glyph-name="less" horiz-adv-x="800" d="M762 248Q762 206 743 181T695 156Q678 156 666 167T653 196Q653 212 663 221T684 231Q702 231 712 220Q717 226 719 234T721 249Q721 273 702 290T650 307Q621 307 594 284T543 212Q591 183 618
137T645 23Q645 -34 621 -68T559 -102Q538 -102 518 -90T488 -59Q487 -56 492 -54T498 -52Q505 -62 517 -62T542 -50T564 -13T573 54Q573 90 560 120T526 173T477 213T423 241Q442 218 456 183T471 102Q471 77 464 58T444 25T417 5T385 -2Q371 -2 364 1T349 4Q341
4 335 -1T329 -18Q329 -33 351 -55Q353 -57 349 -61T343 -64Q297 -42 275 -10T253 62Q253 103 278 145T352 224L347 233Q325 232 305 218T265 186T226 154T186 139Q166 139 155 150T134 174T116 199T92 211Q78 211 67 200T55 165Q55 155 58 142Q59 139 53 138T46
139Q31 170 31 202Q31 236 46 267T86 322T142 360T206 374Q225 374 245 369T285 351T322 321T353 279L362 286Q357 315 343 338T312 383T284 429T272 484Q272 524 293 552T356 581Q376 581 399 571T441 542Q443 539 439 535T433 532Q419 541 407 535T395 512Q395
498 412 490T450 469T488 437T505 383Q505 362 498 341T480 303T453 273T423 257Q484 245 529 220Q549 283 585 319T663 356Q684 356 702 348T734 324T754 290T762 248Z" />
<glyph unicode="=" glyph-name="equal" horiz-adv-x="623" d="M312 146L50 143Q48 145 48 153T50 162L312 159L573 162Q575 162 575 154T573 143L312 146ZM312 299L50 296Q48 297 48 306T50 315L312 312L573 315Q575 315 575 306T573 296L312 299Z" />
<glyph unicode="&gt;" glyph-name="greater" horiz-adv-x="800" d="M769 202Q769 170 754 139Q753 137 747 138T742 142Q745 155 745 165Q745 188 734 199T708 211Q693 211 684 200T666 175T646 150T614 139Q594 139 575 153T536 185T496 217T453 233L448 224Q497
187 522 145T547 62Q547 23 525 -9T457 -64Q455 -65 451 -61T449 -55Q471 -33 471 -18Q471 -7 465 -2T451 4Q444 4 437 1T415 -2Q399 -2 384 5T356 25T337 57T329 102Q329 147 343 182T377 241Q350 230 323 214T275 174T240 120T227 54Q227 13 236 -12T257 -50T282
-62T302 -52Q303 -51 308 -53T312 -59Q303 -77 283 -89T241 -102Q203 -102 179 -68T155 23Q155 90 182 136T257 212Q234 261 207 284T150 307Q117 307 98 290T79 249Q79 242 81 234T88 220Q98 231 116 231Q127 231 137 222T147 196Q147 178 135 167T105 156Q77
156 58 181T38 248Q38 270 45 289T66 324T97 347T137 356Q179 356 215 320T271 220Q316 245 377 257Q362 261 347 273T321 302T302 341T295 383Q295 417 312 436T350 468T388 489T405 512Q405 529 393 535T367 532Q365 531 361 535T359 542Q377 561 400 571T444
581Q485 581 506 553T528 484Q528 453 516 430T488 384T458 338T438 286L447 279Q460 303 477 321T514 351T554 368T594 374Q626 374 657 360T713 323T753 268T769 202Z" />
<glyph unicode="?" glyph-name="question" horiz-adv-x="341" d="M155 24Q155 9 144 -3T116 -15Q100 -15 89 -4T78 22Q78 37 89 49T117 61Q133 61 144 50T155 24ZM310 401Q310 379 305 362T287 329T250 299T190 270Q145 251 126 230T107 185Q107 169 114 151Q115
149 110 147T103 146Q92 172 86 191T80 227Q80 259 99 283T162 328L257 371Q274 379 280 386T287 407Q287 417 278 427T247 443L157 469Q108 483 85 504T62 557Q62 583 77 619Q78 620 83 618T89 614Q86 603 86 596Q86 587 90 579T107 563T141 545T199 525Q257 508
283 480T310 401Z" />
<glyph unicode="@" glyph-name="at" horiz-adv-x="633" d="M370 368Q355 380 337 380Q321 380 305 366T275 329T254 279T245 224Q245 198 251 188T268 177Q275 177 285 183T307 198T328 220T347 245L370 368V368ZM583 341Q583 294 568 256T530 189T479 146T423
130Q380 130 363 154T347 224L345 226Q334 209 320 193T292 163T266 142T246 134Q224 134 209 153T193 209Q193 237 204 263T234 313T273 356T316 391Q334 404 345 409T367 414Q383 414 392 408Q401 419 412 429T425 441Q426 442 428 440T430 436Q428 426 424 407T414
363T403 308T393 247Q386 204 396 179T436 153Q462 153 481 164T514 196T533 242T540 298Q540 345 525 389T481 468T410 522T313 543Q269 543 230 523T161 466T115 381T98 272Q98 218 116 170T166 87T244 32T344 11Q386 11 425 26T495 66Q498 69 502 63T505 55Q468
23 418 5T314 -14Q251 -14 202 7T119 65T68 147T50 244Q50 303 71 361T130 464T220 538T336 567Q392 567 437 549T515 499T565 427T583 341Z" />
<glyph unicode="A" glyph-name="A" horiz-adv-x="687" d="M325 537L211 269H420L325 537ZM686 5Q688 4 689 -2T685 -7Q662 -4 633 -2T573 0Q530 0 493 -1T424 -7Q420 -8 420 -2T423 5Q459 9 476 14T494 40Q494 63 483 96T457 167L427 249H202L167 167Q147 122
136 92T124 40Q124 22 139 15T190 5Q192 4 193 -2T190 -7Q167 -4 147 -2T96 0Q75 0 63 0T41 -1T22 -3T-3 -7Q-7 -8 -7 -2T-4 5Q21 7 39 16T73 45T104 94T138 167L349 650Q351 653 355 653T361 650L541 167Q558 121 571 91T600 42T635 16T686 5Z" />
<glyph unicode="B" glyph-name="B" horiz-adv-x="611" d="M489 176Q489 213 474 245T430 299T359 332T265 336Q263 336 263 342T265 348Q355 348 394 377T434 479Q434 518 424 544T394 587T347 611T288 618Q277 618 269 617T247 614Q242 591 240 558T238 468V162Q238
112 240 83T252 39T277 20T322 16Q363 16 394 24T447 50T478 100T489 176ZM569 192Q569 151 553 115T505 53T431 11T332 -4Q320 -4 303 -4T268 -2T235 -1T210 0Q167 0 133 -1T67 -7Q62 -8 63 -2T66 5Q99 8 118 12T146 32T158 78T160 167V467Q160 525 158 556T147
602T118 622T66 630Q64 630 63 636T67 641Q82 639 96 638T124 636T155 635T193 634Q202 634 217 634T249 636T283 637T312 638Q352 638 388 629T451 601T494 555T510 491Q510 468 499 445T469 402T422 368T364 348Q408 349 445 338T510 306T553 256T569 192Z" />
<glyph unicode="C" glyph-name="C" horiz-adv-x="705" d="M654 170Q653 147 651 124T647 81T641 48T635 33Q609 13 560 -3T421 -20Q338 -20 271 6T157 78T85 181T60 304Q60 365 87 427T162 540T278 622T425 654Q459 654 492 648T554 634T603 616T631 601Q634 599
637 586T642 554T646 511T649 464Q650 462 644 462T638 463Q632 493 615 523T569 577T499 616T402 631Q346 631 299 612T217 555T163 464T143 341Q143 257 168 194T233 89T325 26T430 4Q469 4 505 15T571 49T620 102T642 172Q642 174 648 174T654 170Z" />
<glyph unicode="D" glyph-name="D" horiz-adv-x="789" d="M649 295Q649 374 629 434T570 534T476 595T353 615Q327 615 310 615T280 613T261 612T247 610Q245 598 243 585T240 556T239 518T238 468V131Q238 93 242 71T263 38T311 23T397 19Q450 19 496 37T576
91T629 178T649 295ZM729 327Q729 259 703 199T630 94T517 23T370 -4Q357 -4 336 -4T293 -2T252 -1T224 0Q181 0 140 -1T67 -7Q62 -8 63 -2T66 5Q99 8 118 12T146 32T158 78T160 167V467Q160 525 158 556T147 602T118 622T66 630Q64 630 63 636T67 641Q98 637 144
636T233 634Q242 634 261 634T303 636T348 637T383 638Q469 638 534 614T642 548T707 450T729 327Z" />
<glyph unicode="E" glyph-name="E" horiz-adv-x="606" d="M540 105Q537 86 532 58T521 13Q517 1 513 -2T497 -5Q470 -5 426 -3T327 0Q253 0 183 -1T58 -7Q53 -8 54 -2T57 5Q95 9 116 13T146 32T158 78T160 167V467Q160 525 158 556T147 602T116 621T57 630Q55
630 54 636T58 641Q112 637 180 636T323 634Q377 634 425 636T514 641Q508 620 508 587Q508 579 508 567T510 549Q510 547 504 547T498 549Q495 566 488 577T465 596T419 606T340 609H244Q238 571 238 472V340H342Q383 340 404 342T435 348T446 360T450 377Q451
378 457 378T462 377Q459 366 457 349T455 314Q455 306 455 293T457 274Q458 272 452 272T446 274Q444 286 441 294T427 309T397 317T342 320H238V171Q238 121 241 92T252 48T272 29T302 25H353Q410 25 442 28T492 41T516 66T528 107Q529 108 534 108T540 105Z"
/>
<glyph unicode="F" glyph-name="F" horiz-adv-x="580" d="M531 529Q532 526 526 526T520 527Q514 552 509 568T489 593T442 605T354 609H245Q241 590 240 556T238 472V336H309Q357 336 383 339T423 348T439 365T446 389Q446 390 452 390T458 389Q454 375 452 355T449
314Q449 304 449 290T452 267Q453 262 447 262T440 266Q437 281 432 290T414 305T376 313T309 315H238V167Q238 109 239 78T250 31T280 12T336 5Q338 4 339 -2T336 -7Q313 -4 278 -2T210 0Q167 0 137 -1T76 -7Q72 -8 72 -2T75 5Q104 8 121 12T146 31T157 78T160
167V467Q160 525 159 556T147 602T117 621T58 630Q56 630 55 636T58 641Q112 637 182 636T328 634Q382 634 426 636T498 639Q509 639 513 636T521 621Q523 612 524 600T526 576T528 551T531 529Z" />
<glyph unicode="G" glyph-name="G" horiz-adv-x="745" d="M735 269Q700 266 682 260T654 239T644 194T642 116Q642 93 644 76T654 50Q595 17 539 -1T412 -20Q329 -20 264 6T153 77T84 180T60 303Q60 365 87 427T163 540T278 622T425 654Q459 654 493 647T557 630T607
611T635 595Q638 593 639 581T642 549T643 508T641 462Q641 459 636 459T630 461Q628 491 611 521T565 576T494 616T402 631Q346 631 299 612T217 555T163 463T143 340Q143 257 166 194T229 89T318 25T421 3Q461 3 487 9T528 23T549 41T558 56Q561 66 562 85T564
121Q564 170 562 198T548 241T515 261T452 269Q450 269 449 275T453 281Q484 276 527 275T614 274Q645 274 678 276T735 281Q739 282 738 276T735 269Z" />
<glyph unicode="H" glyph-name="H" horiz-adv-x="851" d="M793 -7Q781 -6 765 -5T732 -2T696 -1T663 0Q620 0 590 -1T528 -7Q524 -8 525 -2T528 5Q557 8 574 12T599 31T610 78T613 167V311H238V167Q238 112 240 81T250 33T275 12T323 5Q325 4 326 -2T322 -7Q299
-4 271 -2T210 0Q168 0 129 -1T58 -7Q54 -8 55 -2T58 5Q96 9 116 13T147 32T158 78T160 167V467Q160 525 159 556T147 602T117 621T58 630Q56 630 55 636T58 641Q90 637 129 636T210 634Q242 634 270 636T322 641Q327 642 326 636T323 630Q293 627 276 622T250
601T240 554T238 467V332H613V467Q613 524 611 555T600 602T574 622T528 630Q526 630 525 636T528 641Q560 637 590 636T663 634Q678 634 696 634T731 636T765 638T793 641Q797 642 796 636T793 630Q754 627 733 622T703 601T693 554T691 467V167Q691 111 692 80T703
33T733 13T793 5Q795 4 796 -2T793 -7Z" />
<glyph unicode="I" glyph-name="I" horiz-adv-x="428" d="M346 -7Q323 -4 290 -2T225 0Q182 0 148 -1T82 -7Q77 -8 78 -2T81 5Q114 8 133 12T161 32T173 78T175 167V467Q175 525 173 556T162 602T133 622T81 630Q79 630 78 636T82 641Q113 637 147 636T225 634Q256
634 289 636T346 641Q350 642 349 636T346 630Q311 627 293 622T265 601T255 554T253 467V167Q253 111 254 80T265 33T292 13T346 5Q348 4 349 -2T346 -7Z" />
<glyph unicode="J" glyph-name="J" horiz-adv-x="393" d="M346 630Q311 627 293 622T265 601T255 554T253 467V167Q253 94 241 38T202 -63T128 -142T12 -204Q8 -206 7 -200T8 -193Q59 -171 91 -143T142 -73T168 27T175 167V467Q175 525 173 556T162 602T133 622T81
630Q79 630 78 636T82 641Q113 637 147 636T225 634Q256 634 289 636T346 641Q350 642 349 636T346 630Z" />
<glyph unicode="K" glyph-name="K" horiz-adv-x="689" d="M323 5Q325 4 325 -2T322 -7Q299 -4 270 -2T210 0Q167 0 128 -1T58 -7Q54 -8 54 -2T57 5Q95 9 116 13T146 32T158 78T160 167V467Q160 525 158 556T147 602T116 621T57 630Q55 630 55 636T58 641Q89 637
128 636T210 634Q241 634 270 636T322 641Q326 642 326 636T323 630Q293 627 276 622T250 601T240 554T238 467V167Q238 112 240 81T250 33T275 12T323 5ZM725 -7Q702 -4 667 -2T599 0Q557 0 520 -1T450 -7Q446 -8 447 -2T450 5Q483 9 497 14T498 40Q484 63 451
96T381 167L247 304L393 467Q427 505 457 538T499 594Q510 615 496 620T448 630Q446 630 445 636T449 641Q472 638 500 637T561 636Q584 636 606 637T645 641Q650 642 649 636T646 630Q614 627 591 619T545 592T493 543T422 467L309 345L488 167Q534 121 565 91T621
43T669 17T725 5Q727 4 728 -2T725 -7Z" />
<glyph unicode="L" glyph-name="L" horiz-adv-x="559" d="M536 95Q534 75 531 52T522 13Q518 1 514 -2T498 -5Q471 -5 431 -3T337 0Q300 0 262 0T188 -1T118 -3T58 -7Q54 -8 55 -2T58 5Q96 9 116 13T147 32T158 78T160 167V467Q160 525 158 556T147 602T119 622T67
630Q65 630 64 636T67 641Q99 637 133 636T210 634Q242 634 275 636T331 641Q336 642 335 636T332 630Q297 627 278 622T250 601T240 554T238 467V167Q238 120 240 92T249 50T268 32T299 28H354Q412 28 444 30T492 40T514 61T525 96Q525 97 531 97T536 95Z" />
<glyph unicode="M" glyph-name="M" horiz-adv-x="929" d="M874 -7Q862 -6 846 -5T813 -2T777 -1T744 0Q701 0 671 -1T609 -7Q605 -8 606 -2T609 5Q638 8 654 12T679 32T690 78T691 167L685 536L453 -7Q452 -9 448 -9T442 -6L205 508L199 167Q198 116 199 86T208
38T236 15T290 5Q292 5 292 -1T289 -7Q266 -4 244 -2T190 0Q169 0 154 0T125 -1T98 -3T69 -7Q65 -8 66 -2T69 5Q102 9 121 14T149 36T161 83T165 167L172 518Q173 572 146 598T61 630Q59 630 58 636T61 642Q79 639 97 638T135 636T178 635T233 634L473 105L621
455Q642 505 660 551T689 638Q737 633 782 635T862 642Q867 642 866 636T863 630Q824 627 803 622T773 601T763 554T763 468L769 167Q770 111 772 81T783 34T814 13T874 5Q876 5 877 -1T874 -7Z" />
<glyph unicode="N" glyph-name="N" horiz-adv-x="823" d="M782 630Q747 627 728 621T700 597T690 549T688 467V167Q688 148 688 123T690 73T692 24T696 -16Q696 -18 692 -18T684 -15L198 508V167Q198 116 199 86T210 38T238 15T292 5Q294 4 295 -2T291 -7Q268
-4 246 -2T193 0Q172 0 156 0T127 -1T100 -3T72 -7Q67 -8 68 -2T71 5Q104 8 123 14T151 36T163 83T165 167V518Q165 535 154 554T127 589T91 616T53 630Q51 630 51 636T54 641Q85 637 115 636T189 634L655 129V467Q655 520 653 551T642 598T614 620T561 630Q559
630 559 636T562 641Q577 639 590 638T616 636T646 635T683 634Q714 634 736 636T781 641Q786 642 785 636T782 630Z" />
<glyph unicode="O" glyph-name="O" horiz-adv-x="827" d="M686 294Q686 377 661 440T596 545T504 609T400 631Q344 631 297 612T215 555T161 463T141 340Q141 257 166 194T231 89T323 25T427 3Q483 3 530 22T612 79T666 171T686 294ZM767 328Q767 266 740 204T665
92T551 11T404 -20Q327 -20 264 7T156 79T85 184T60 307Q60 368 86 430T161 542T275 623T422 654Q499 654 562 627T671 555T742 451T767 328Z" />
<glyph unicode="P" glyph-name="P" horiz-adv-x="590" d="M532 477Q532 434 515 400T464 341T385 303T281 289H265Q263 289 263 295T265 301Q270 300 280 300Q369 300 410 338T452 461Q452 539 411 578T292 618Q270 618 247 614Q242 591 240 558T238 468V166Q238
111 239 80T250 33T277 12T331 4Q333 4 334 -2T331 -7Q308 -4 275 -2T210 0Q167 0 133 -1T67 -7Q62 -8 63 -2T66 4Q99 8 118 12T146 31T158 77T160 166V467Q160 525 158 556T147 602T118 621T66 629Q64 630 63 636T67 641Q82 639 96 638T124 635T155 634T193 634Q202
634 217 634T251 636T287 637T318 638Q366 638 405 627T473 594T516 544T532 477Z" />
<glyph unicode="Q" glyph-name="Q" horiz-adv-x="827" d="M686 293Q686 377 661 440T596 545T504 608T399 630Q343 630 296 611T214 554T160 463T140 340Q140 256 165 193T230 88T322 25T427 3Q482 3 529 22T612 79T666 170T686 293ZM1308 -241Q1230 -264 1161
-275T1026 -286Q947 -286 873 -270T722 -220T567 -137T397 -20Q322 -19 260 8T153 81T85 184T60 306Q60 367 86 429T161 541T275 622T422 654Q498 654 561 627T670 555T741 450T766 327Q766 274 746 221T690 121T603 40T490 -10Q573 -66 651 -111T805 -189T957
-238T1111 -256Q1159 -256 1207 -250T1307 -229Q1309 -228 1311 -233T1308 -241Z" />
<glyph unicode="R" glyph-name="R" horiz-adv-x="671" d="M479 448Q479 500 464 534T422 587T363 614T292 622Q280 622 270 622T247 620Q238 590 238 477V308Q250 307 257 307T279 307Q334 307 372 317T434 345T468 390T479 448ZM741 -10Q743 -10 744 -16T740
-22Q655 -22 591 5T481 76T404 177T358 293Q340 289 318 288T280 286Q263 286 257 286T238 288V167Q238 111 239 80T250 33T278 13T332 5Q334 4 335 -2T331 -7Q308 -4 275 -2T210 0Q167 0 133 -1T67 -7Q63 -8 63 -2T66 5Q100 8 119 12T147 32T158 78T160 167V468Q160
511 159 540T151 587T133 611T100 619Q92 619 83 618T63 615Q61 615 60 620T62 627Q77 632 102 635T158 640T227 642T305 643Q357 643 403 635T484 608T539 561T559 491Q559 470 552 446T529 397T487 350T423 312Q442 257 479 200T560 97T651 20T741 -10Z" />
<glyph unicode="S" glyph-name="S" horiz-adv-x="509" d="M448 179Q448 138 434 102T393 39T331 -4T252 -20Q201 -20 159 -4T78 46Q74 50 78 86T84 175Q84 177 90 177T96 176Q101 98 142 51T261 3Q286 3 310 10T352 33T382 70T393 124Q393 166 372 195T318 247T247
292T177 338T123 395T101 473Q101 507 115 539T154 597T213 638T289 654Q331 654 360 646T415 623Q427 616 427 517Q427 515 422 515T415 516Q406 573 371 602T282 631Q258 631 236 624T198 603T171 570T161 526Q161 486 182 458T235 408T304 365T373 319T426 260T448
179Z" />
<glyph unicode="T" glyph-name="T" horiz-adv-x="689" d="M671 668Q667 651 665 631T662 585Q662 573 662 558T665 532Q665 530 659 530T653 532Q650 549 644 562T622 584T577 597T499 602H393V167Q393 111 394 80T405 33T433 13T487 5Q489 4 490 -2T486 -7Q463
-4 430 -2T366 0Q323 0 289 -1T222 -7Q218 -8 219 -2T222 5Q255 8 274 12T302 32T313 78T315 167V602H205Q158 602 129 598T83 585T59 563T47 532Q47 531 41 531T36 532Q39 548 40 571T41 616Q41 643 36 668Q36 670 42 670T48 668Q51 655 55 648T75 636T120 631T205
630H499Q553 630 584 631T631 636T652 647T660 668Q660 669 666 669T671 668Z" />
<glyph unicode="U" glyph-name="U" horiz-adv-x="804" d="M767 630Q732 627 713 620T683 597T671 551T669 476V226Q669 176 653 131T604 53T524 0T411 -20Q356 -20 308 -3T223 46T166 126T145 233V467Q145 525 143 556T132 602T104 622T52 630Q50 630 49 636T52
641Q84 637 118 636T195 634Q227 634 260 636T316 641Q321 642 320 636T317 630Q282 627 263 622T235 601T225 554T223 467V253Q223 192 242 149T291 77T360 35T436 21Q537 21 588 75T640 236V476Q640 525 637 553T624 598T595 620T542 630Q540 630 539 636T543
641Q558 639 571 638T598 636T628 635T666 634Q697 634 720 636T766 641Q771 642 770 636T767 630Z" />
<glyph unicode="V" glyph-name="V" horiz-adv-x="709" d="M732 630Q705 627 688 619T657 594T628 546T592 467L381 -16Q379 -18 375 -18T369 -15L171 467Q153 512 140 542T112 590T77 618T23 630Q21 630 21 636T24 641Q47 638 76 636T136 634Q179 634 217 635T286
641Q290 642 289 636T286 630Q251 625 234 620T216 594Q216 565 256 467L405 98L563 467Q587 522 596 549T605 594Q605 612 589 619T538 630Q536 630 535 636T539 641Q562 638 581 636T633 634Q654 634 666 634T688 635T706 637T731 641Q736 642 735 636T732 630Z"
/>
<glyph unicode="W" glyph-name="W" horiz-adv-x="1001" d="M1029 630Q1006 628 990 619T959 590T932 540T900 467L704 -16Q703 -18 699 -18T693 -15L544 417L359 -16Q358 -18 354 -18T348 -15L160 467Q142 512 129 542T101 591T67 618T18 630Q16 630 16 636T19
641Q40 638 67 636T123 634Q163 634 207 635T280 641Q284 642 283 636T280 630Q244 627 226 619T207 590Q207 582 211 567T220 533T232 498T243 467L384 104L531 454L526 467Q508 512 496 542T470 591T438 618T391 630Q389 630 389 636T392 641Q413 638 440 636T496
634Q516 634 539 634T584 635T627 637T661 641Q665 642 665 636T662 630Q615 626 597 617T579 585Q579 568 586 540T609 467L729 103L871 472Q888 517 897 543T906 589Q906 609 892 617T840 630Q838 630 837 636T841 641Q862 638 885 636T937 634Q957 634 968 634T988
635T1005 637T1029 641Q1033 642 1032 636T1029 630Z" />
<glyph unicode="X" glyph-name="X" horiz-adv-x="710" d="M711 -7Q688 -4 655 -2T590 0Q547 0 508 -1T438 -7Q433 -8 434 -2T437 5Q468 9 482 16T493 43T470 96T412 189L351 284L270 167Q235 116 215 86T192 38T203 15T250 5Q252 4 253 -2T250 -7Q227 -4 205 -2T151
0Q130 0 115 0T86 -1T61 -3T33 -7Q28 -8 29 -2T32 5Q68 9 91 15T134 37T177 83T238 167L336 307L247 445Q210 503 186 537T140 591T95 618T35 630Q33 630 32 636T36 641Q67 637 106 636T188 634Q219 634 252 636T309 641Q313 642 312 636T309 630Q276 627 263 619T253
590T277 535T334 445L381 372L448 468Q485 521 504 551T525 598T513 620T467 630Q465 630 464 636T468 641Q483 639 495 638T521 636T549 635T586 634Q618 634 640 636T685 641Q689 642 688 636T685 630Q648 627 625 621T581 597T537 550T479 468L396 349L499 189Q535
134 558 100T604 45T650 16T711 5Q713 4 714 -2T711 -7Z" />
<glyph unicode="Y" glyph-name="Y" horiz-adv-x="731" d="M712 630Q680 627 659 621T617 597T573 549T515 468L408 315V167Q408 112 409 81T420 34T448 13T502 5Q504 4 505 -2T501 -7Q478 -4 445 -2T380 0Q337 0 303 -1T237 -7Q233 -8 233 -2T236 5Q270 9 289
13T317 32T328 78T330 167V307L243 445Q207 502 183 537T137 591T93 619T39 630Q37 630 36 636T39 641Q70 637 104 636T182 634Q213 634 246 636T302 641Q307 642 306 636T303 630Q270 627 257 618T246 589T271 535T328 445L396 341L483 468Q519 521 538 551T560
598T548 620T503 630Q501 630 500 636T503 641Q518 639 530 638T556 636T585 635T622 634Q653 634 671 636T712 641Q716 642 715 636T712 630Z" />
<glyph unicode="Z" glyph-name="Z" horiz-adv-x="670" d="M614 132Q614 120 612 103T608 68T602 36T596 13Q592 1 588 -2T573 -5Q541 -5 488 -3T369 0Q280 0 205 -1T64 -7Q61 -7 60 -3T61 5L505 609H262Q209 609 179 605T134 591T113 565T103 526Q103 525 97 525T91
526Q93 532 93 551T94 584Q94 601 93 616T90 641Q110 639 137 638T196 636T258 635T316 634Q405 634 473 635T607 641Q610 642 611 638T610 630L169 30H429Q488 30 521 34T570 50T592 81T602 133Q602 134 608 134T614 132Z" />
<glyph unicode="[" glyph-name="bracketleft" horiz-adv-x="340" d="M376 -271Q378 -273 378 -278T372 -281Q354 -274 334 -269T284 -260T215 -254T118 -252V706Q175 706 215 708T284 713T333 722T372 735Q377 737 377 732T376 725Q361 710 317 695T192 671V-217Q273
-225 317 -240T376 -271Z" />
<glyph unicode="\" glyph-name="backslash" horiz-adv-x="312" d="M333 -324Q334 -327 328 -329T321 -328L0 711Q-1 714 5 716T13 715L333 -324V-324Z" />
<glyph unicode="]" glyph-name="bracketright" horiz-adv-x="340" d="M231 -252Q174 -252 134 -254T65 -260T16 -269T-23 -281Q-28 -283 -28 -278T-27 -271Q-12 -255 32 -240T157 -217V671Q76 679 32 694T-27 725Q-29 727 -29 732T-23 735Q-5 728 15 723T65 714T134
708T231 706V-252V-252Z" />
<glyph unicode="^" glyph-name="asciicircum" horiz-adv-x="670" d="M623 128Q623 125 617 126T610 129Q608 155 600 171T575 196T534 210T475 219L379 229L390 131Q394 96 398 72T412 31T437 6T480 -5Q481 -5 482 -11T480 -17Q403 -17 335 6Q299 -6 263 -11T189
-17Q186 -17 187 -11T190 -5Q216 -3 232 5T257 30T271 71T280 131L291 229L195 219Q160 215 136 211T95 197T70 171T59 129Q59 127 53 126T47 128Q47 166 52 200T70 271Q47 339 47 414Q47 417 53 416T59 413Q61 386 69 371T94 346T135 332T195 323L291 312L280
411Q276 445 272 470T258 511T232 536T190 547Q188 547 187 553T189 559Q227 559 263 553T335 536Q407 559 480 559Q484 559 483 553T479 547Q453 545 437 537T412 512T398 470T389 411L378 312L475 323Q509 327 534 331T575 345T599 371T610 413Q611 415 617 416T623
414Q623 376 617 341T600 271Q611 235 617 201T623 128Z" />
<glyph unicode="_" glyph-name="underscore" horiz-adv-x="630" d="M315 0L65 -3Q62 -2 62 8T65 19L315 16L565 19Q567 19 567 9T565 -3L315 0Z" />
<glyph unicode="`" glyph-name="grave" horiz-adv-x="211" d="M191 470Q194 466 190 464T183 465L22 638Q19 641 22 646T31 655T42 662T50 661L191 470V470Z" />
<glyph unicode="a" glyph-name="a" horiz-adv-x="404" d="M266 164Q216 161 185 153T137 132T114 106T108 77Q108 48 126 36T172 23Q198 23 217 32T262 62Q262 69 262 81T264 108T265 137T266 164ZM418 22Q367 -17 326 -17Q300 -17 283 -1T265 47Q235 18 198 2T124
-14Q83 -14 60 9T37 68Q37 88 49 106T88 140T160 165T267 178Q267 192 267 208T268 241T269 270T269 291Q268 314 262 332T241 359Q221 370 183 370Q159 370 141 360T122 339Q122 329 124 324T127 308Q127 294 108 282T66 270Q56 270 51 275T46 288Q47 302 65 322T113
362T177 396T246 410Q284 410 309 384T335 308Q335 291 335 259T333 190T331 119T330 63Q330 34 349 24T417 31Q417 32 418 28T418 22Z" />
<glyph unicode="b" glyph-name="b" horiz-adv-x="491" d="M384 186Q384 273 344 316T241 359Q214 359 187 351T140 330V65Q160 40 193 31T262 22Q321 22 352 63T384 186ZM457 213Q457 171 439 130T388 57T313 6T219 -14Q196 -14 178 -11T142 -4T108 1T72 -1Q67
-2 65 3T65 13Q68 21 70 49T73 132V577Q73 626 61 638T9 638Q7 637 6 641T7 647Q22 655 40 665T75 685T109 707T138 730Q139 731 143 729T147 725Q145 718 144 700T142 660T141 617T140 581V350Q179 375 214 388T293 401Q326 401 356 387T408 347T444 288T457 213Z"
/>
<glyph unicode="c" glyph-name="c" horiz-adv-x="392" d="M372 60Q360 47 343 34T306 10T262 -7T212 -14Q173 -14 141 0T84 40T47 101T33 176Q33 221 53 263T107 338T189 390T290 410Q324 410 344 400T365 379Q365 373 362 364T355 346T345 332T334 326Q323 326
311 332T285 345T254 359T217 365Q159 365 131 330T103 216Q103 167 115 132T147 73T193 38T246 26Q284 26 314 39T367 70Q369 71 371 67T372 60Z" />
<glyph unicode="d" glyph-name="d" horiz-adv-x="505" d="M350 312Q327 335 295 352T221 369Q167 369 134 330T101 208Q101 163 114 129T149 73T197 39T251 28Q274 28 297 38T350 69V312ZM500 31Q487 24 470 16T435 1T402 -11T377 -16Q371 -16 366 -10T358 6T352
27T350 48Q311 16 274 1T204 -14Q170 -14 139 0T85 40T47 99T33 175Q33 220 51 260T100 332T173 382T265 401Q289 401 311 398T350 390V577Q350 626 338 638T286 638Q285 637 284 641T284 647Q299 655 317 665T352 685T386 707T415 730Q416 731 420 729T424 725Q422
718 421 700T419 660T418 617T417 581V80Q417 43 434 36T498 41Q499 41 500 37T500 31Z" />
<glyph unicode="e" glyph-name="e" horiz-adv-x="417" d="M319 270Q319 289 312 310T292 347T259 375T216 386Q177 386 148 354T108 265L319 270V270ZM389 279Q389 267 386 255L106 249Q105 241 105 232T104 214Q104 163 117 128T151 69T199 36T253 25Q288 25
321 36T380 68Q381 69 384 65T385 59Q372 44 354 31T313 7T268 -8T220 -14Q178 -14 144 0T85 41T47 104T33 184Q33 229 51 270T98 342T165 391T242 410Q279 410 306 398T352 366T380 324T389 279Z" />
<glyph unicode="f" glyph-name="f" horiz-adv-x="304" d="M407 688Q407 681 403 672T394 653T382 638T370 632Q361 632 349 638T324 653T295 667T263 674Q237 674 220 664T193 629T178 561T174 454V392H228Q260 392 280 393T310 396Q312 397 313 391T314 378T313
366T310 360Q302 361 286 361T241 362H174V95Q174 69 177 52T191 26T222 12T275 6Q277 6 277 0T275 -5Q267 -4 250 -3T213 -2T174 -1T145 0Q116 0 85 -1T33 -5Q30 -6 30 0T33 6Q58 9 73 12T96 24T106 49T108 95V362Q99 362 87 362T63 362T41 363T27 363Q24 362
23 371T24 380Q53 382 73 384T108 395V435Q108 498 126 551T174 644T244 704T329 726Q344 726 358 722T383 712T400 700T407 688Z" />
<glyph unicode="g" glyph-name="g" horiz-adv-x="430" d="M383 -128Q383 -91 354 -67T270 -45L153 -48Q117 -65 102 -86T87 -136Q87 -155 95 -172T121 -204T166 -226T231 -235Q305 -235 344 -204T383 -128ZM310 237Q310 313 278 352T204 391Q157 391 136 360T115
277Q115 239 125 211T152 164T189 136T227 126Q268 126 289 156T310 237ZM438 -87Q438 -127 416 -160T358 -218T278 -257T190 -271Q148 -271 116 -261T61 -235T28 -199T16 -157Q16 -120 47 -89T138 -42Q122 -36 108 -25T84 -2T67 22T61 41Q61 50 72 56T100 68T133
79T162 91Q114 114 81 153T48 250Q48 281 60 310T95 361T150 397T221 411Q253 411 277 405T333 399Q365 399 385 400T415 403Q419 404 421 397T423 380T421 364T414 357Q406 358 395 358T355 359H342Q359 340 368 316T377 264Q377 215 346 173T262 113Q221 98 196
88T158 71T141 60T137 52Q137 38 153 25T209 13L283 15Q327 16 356 9T404 -13T430 -47T438 -87Z" />
<glyph unicode="h" glyph-name="h" horiz-adv-x="501" d="M498 -5Q490 -4 477 -3T448 -2T417 -1T391 0Q362 0 339 -1T294 -5Q291 -6 291 0T294 7Q313 9 325 12T345 24T354 49T357 95V245Q357 311 340 340T284 370Q272 370 261 368T235 360T201 344T153 316V95Q153
68 155 52T164 27T183 13T216 7Q218 7 218 1T216 -5Q201 -3 173 -2T124 0Q95 0 64 -1T12 -5Q9 -6 9 0T11 7Q37 10 52 13T75 24T85 49T87 95V577Q87 626 75 638T23 638Q21 637 20 641T21 647Q36 655 54 665T89 685T123 707T152 730Q153 731 157 729T160 725Q158
718 157 700T155 660T154 617T154 581L153 332Q212 378 252 394T328 410Q381 410 402 378T423 289V95Q423 68 424 52T433 26T456 13T498 7Q500 7 500 1T498 -5Z" />
<glyph unicode="i" glyph-name="i" horiz-adv-x="255" d="M243 -5Q222 -2 194 -1T136 0Q107 0 77 -1T26 -5Q24 -6 24 0T26 6Q51 9 66 12T89 24T99 49T101 95V264Q101 289 99 304T89 325T69 332T37 324Q35 324 34 327T35 333Q50 342 68 352T103 373T137 396T166
420Q167 421 171 419T175 415Q173 407 172 389T170 348T169 303T168 268V95Q168 66 170 50T180 25T202 13T243 6Q245 6 245 0T243 -5ZM190 593Q190 576 178 563T147 549Q130 549 119 561T107 591Q107 608 119 621T149 635Q166 635 178 623T190 593Z" />
<glyph unicode="j" glyph-name="j" horiz-adv-x="248" d="M175 415Q173 408 172 390T170 349T169 304T168 268V3Q168 -57 160 -97T134 -167T86 -223T11 -284Q8 -286 5 -281T3 -274Q33 -242 52 -216T82 -160T97 -92T101 3V264Q101 313 88 325T37 325Q35 324 34
328T34 333Q49 342 67 352T103 373T137 396T166 420Q167 421 171 419T175 415ZM189 594Q189 576 177 563T147 549Q130 549 118 561T106 591Q106 608 118 622T149 636Q166 636 177 624T189 594Z" />
<glyph unicode="k" glyph-name="k" horiz-adv-x="459" d="M479 7Q481 7 481 1T478 -5Q470 -4 457 -3T429 -2T398 -1T373 0Q344 0 323 -1T281 -5Q279 -6 279 0T281 7Q296 9 305 12T315 23T308 44T278 81L164 203L270 304Q308 340 309 363T261 392Q260 392 260 398T261
403Q282 401 300 400T347 399Q368 399 396 400T440 403Q443 404 443 398T441 392Q406 389 372 364T300 304L220 228L368 75Q397 45 424 27T479 7ZM216 -5Q201 -3 173 -2T123 0Q94 0 64 -1T12 -5Q9 -6 9 0T11 6Q37 9 52 12T75 24T85 49T87 95V577Q87 626 74 638T23
638Q21 637 20 641T20 647Q51 664 89 685T152 730Q153 731 157 729T160 725Q158 718 157 700T155 660T154 617T153 581V95Q153 68 155 52T164 27T183 13T216 7Q218 7 218 1T216 -5Z" />
<glyph unicode="l" glyph-name="l" horiz-adv-x="242" d="M229 -5Q208 -2 178 -1T119 0Q90 0 62 -1T12 -5Q10 -6 10 0T12 6Q37 9 52 12T75 24T85 49T87 95V577Q87 626 75 638T23 638Q21 637 20 641T21 647Q36 655 54 665T89 685T123 707T152 730Q153 731 157 729T161
725Q159 718 158 700T156 660T155 617T154 581V95Q154 66 156 50T166 25T188 13T229 6Q231 6 231 0T229 -5Z" />
<glyph unicode="m" glyph-name="m" horiz-adv-x="768" d="M753 7Q755 7 755 1T752 -5Q744 -4 733 -3T708 -2T681 -1T657 0Q628 0 604 -1T560 -5Q557 -6 557 0T560 7Q579 9 591 12T611 24T620 49T623 95V239Q623 310 607 337T554 364Q529 364 499 353T427 313Q428
307 428 301T428 289V95Q428 68 430 52T439 26T459 12T493 7Q495 7 495 1T492 -5Q477 -3 449 -2T400 0Q371 0 346 -1T299 -5Q297 -6 297 0T299 7Q319 9 331 12T350 24T359 49T362 95V245Q362 315 346 342T288 370Q253 370 167 316V95Q167 68 169 52T178 27T197
13T230 7Q232 7 232 1T230 -5Q215 -3 187 -2T138 0Q109 0 78 -1T26 -5Q23 -6 23 0T25 7Q51 10 66 13T89 24T99 49T101 95V263Q101 288 99 303T89 325T69 332T37 324Q35 324 34 328T34 334Q65 351 97 374T154 420Q155 421 158 419T162 414Q163 408 163 398T165 376T166
353T167 332Q188 348 210 362T254 386T295 403T329 410Q409 410 425 328Q466 360 511 382T592 405Q642 405 665 376T689 283V95Q689 68 691 52T700 26T719 12T753 7Z" />
<glyph unicode="n" glyph-name="n" horiz-adv-x="515" d="M512 -5Q504 -4 491 -3T462 -2T431 -1T405 0Q376 0 353 -1T308 -5Q305 -6 305 0T308 7Q327 9 339 12T359 24T368 49T371 95V245Q371 311 357 340T298 370Q286 370 275 368T249 360T215 344T167 316V95Q167
68 169 52T178 27T197 13T230 7Q232 7 232 1T230 -5Q215 -3 187 -2T138 0Q109 0 78 -1T26 -5Q23 -6 23 0T25 7Q51 10 66 13T89 24T99 49T101 95V263Q101 288 99 303T89 325T69 332T37 324Q35 324 34 328T34 334Q65 351 97 374T154 420Q155 421 158 419T162 414Q163
408 163 398T165 376T166 353T167 332Q198 354 223 369T268 393T307 406T342 410Q395 410 416 378T437 289V95Q437 68 438 52T447 26T470 13T512 7Q514 7 514 1T512 -5Z" />
<glyph unicode="o" glyph-name="o" horiz-adv-x="487" d="M381 165Q381 217 370 258T339 328T290 372T227 388Q197 388 174 375T136 341T113 291T105 231Q105 126 147 67T260 8Q290 8 313 21T351 55T373 105T381 165ZM454 205Q454 163 439 124T396 54T328 5T238
-14Q191 -14 153 3T89 48T48 114T33 191Q33 233 48 272T91 342T159 391T249 410Q296 410 334 393T398 348T439 282T454 205Z" />
<glyph unicode="p" glyph-name="p" horiz-adv-x="499" d="M394 194Q394 234 382 264T351 314T306 344T255 354Q229 354 205 346T155 322V58Q187 40 219 32T280 23Q331 23 362 68T394 194ZM467 216Q467 175 449 134T397 60T319 7T222 -14Q205 -14 189 -12T155 -5V-159Q155
-188 158 -204T171 -228T202 -240T257 -244Q259 -244 259 -250T257 -256Q246 -255 229 -255T192 -254T154 -254T126 -255Q97 -256 71 -257T24 -263Q22 -264 22 -258T24 -252Q48 -249 61 -245T80 -232T87 -207T88 -161V23Q80 27 72 32T55 42L88 93V263Q88 288 86
303T76 325T56 332T24 324Q23 324 21 327T22 333Q52 350 85 374T143 422Q144 423 147 421T151 416Q152 410 152 400T153 379T153 358T154 338Q192 370 229 385T297 401Q333 401 364 386T418 346T454 287T467 216Z" />
<glyph unicode="q" glyph-name="q" horiz-adv-x="491" d="M352 294Q330 326 296 345T220 365Q168 365 136 330T103 218Q103 168 117 132T153 72T203 37T257 26Q280 26 303 31T352 57V294ZM508 -257Q500 -256 485 -256T451 -255T415 -254T387 -255Q358 -256 334
-257T288 -263Q286 -264 286 -258T288 -251Q310 -248 323 -244T342 -231T350 -206T352 -160V36Q325 11 292 -1T213 -14Q184 -14 153 -3T95 32T51 91T33 175Q33 217 50 258T98 330T171 381T261 401Q293 401 319 392T368 369Q382 381 394 395T415 421Q417 423 421
421T425 416Q424 410 423 400T421 376T420 349T419 322V-159Q419 -186 421 -202T432 -228T458 -240T508 -245Q510 -245 510 -251T508 -257Z" />
<glyph unicode="r" glyph-name="r" horiz-adv-x="343" d="M345 374Q345 367 342 358T333 341T322 328T313 322Q307 322 300 326T285 337T266 347T245 352Q228 352 211 342T168 299V95Q168 69 171 52T184 26T215 12T269 6Q270 6 270 0T268 -5Q260 -4 243 -3T207
-2T168 -1T139 0Q110 0 79 -1T26 -5Q24 -6 24 0T26 6Q51 9 66 12T89 24T99 49T101 95V264Q101 289 99 304T89 325T69 332T37 324Q36 324 35 327T35 333Q65 350 98 374T155 421Q156 422 159 420T164 416Q166 403 167 375T168 319Q213 374 245 397T296 421Q306 421
314 415T330 402T341 386T345 374Z" />
<glyph unicode="s" glyph-name="s" horiz-adv-x="339" d="M304 114Q304 88 294 65T265 25T220 -3T161 -14Q129 -14 99 -6T46 15Q44 16 44 27T42 55T41 91T41 126Q41 128 46 128T52 127Q70 60 104 32T178 4Q216 4 232 24T249 77Q249 101 235 119T199 151T153 180T106
210T71 246T56 296Q56 318 65 338T91 375T134 400T192 410Q219 410 239 406T277 393Q279 392 280 382T283 358T286 326T287 293Q287 291 282 291T276 292Q262 337 233 365T171 393Q143 393 129 375T114 327Q114 304 128 288T163 258T209 231T255 202T290 165T304
114Z" />
<glyph unicode="t" glyph-name="t" horiz-adv-x="317" d="M312 25Q281 5 245 -4T187 -14Q140 -14 120 8T100 81L104 356Q87 356 68 356T40 355Q37 355 36 360T37 367Q74 393 106 424T170 490Q171 491 174 489T178 485Q177 477 176 465T174 439T171 412T170 392H224Q256
392 278 393T311 397Q314 398 314 391T314 376T310 360T303 353Q295 354 280 355T237 356H170L166 104Q165 58 185 41T238 24Q254 24 273 26T310 34Q311 34 312 30T312 25Z" />
<glyph unicode="u" glyph-name="u" horiz-adv-x="488" d="M491 31Q478 24 461 16T425 1T392 -11T368 -16Q355 -16 348 8T341 73Q325 56 305 41T264 13T222 -6T182 -14Q135 -14 105 15T76 107L79 297Q79 317 78 329T70 347T50 356T15 359Q14 359 13 363T13 368Q44
374 76 386T133 412Q134 412 137 409T142 404Q144 390 144 363T145 308L143 151Q143 115 146 91T159 53T183 33T221 27Q248 27 276 42T341 89L344 302Q344 322 343 334T336 352T317 361T281 366Q279 366 278 370T278 375Q309 380 341 390T398 415Q399 416 402 413T407
407Q409 393 409 364T410 308L408 80Q408 42 425 35T489 41Q490 41 491 37T491 31Z" />
<glyph unicode="v" glyph-name="v" horiz-adv-x="416" d="M446 392Q425 390 411 385T386 370T366 344T348 304L222 -13Q220 -17 215 -17T208 -14L82 304Q72 329 63 345T42 372T17 386T-16 392Q-18 392 -18 398T-15 403Q-8 402 5 401T32 400T61 399T86 399Q115
399 140 400T186 403Q188 404 188 398T186 392Q166 390 154 386T138 372T137 347T151 304L238 84L324 304Q334 329 337 345T337 371T321 385T289 392Q287 392 287 398T289 403Q310 401 325 400T369 399Q389 399 409 400T445 403Q448 404 448 398T446 392Z" />
<glyph unicode="w" glyph-name="w" horiz-adv-x="653" d="M684 392Q663 390 649 385T624 370T604 344T586 304L460 -13Q458 -17 453 -17T446 -14L340 284L223 -13Q221 -17 216 -17T209 -14L83 304Q73 329 64 345T43 372T18 386T-15 392Q-17 392 -17 398T-14 403Q-7
402 5 401T32 400T61 399T86 399Q115 399 140 400T187 403Q189 404 189 398T187 392Q167 390 155 386T139 372T138 347T152 304L239 84L329 315Q321 337 313 351T294 374T270 386T239 392Q237 392 237 398T240 403Q247 402 260 401T287 400T316 399T341 399Q370
399 395 400T441 403Q443 404 443 398T441 392Q421 390 409 386T393 372T390 347T402 304L478 88L561 304Q571 329 574 345T574 371T558 385T526 392Q525 392 525 398T526 403Q536 402 544 401T562 400T581 399T606 399Q627 399 647 400T683 403Q685 404 685 398T684
392Z" />
<glyph unicode="x" glyph-name="x" horiz-adv-x="435" d="M439 7Q440 7 440 1T438 -5Q431 -4 418 -3T390 -2T361 -1T336 0Q308 0 292 -1T255 -5Q252 -6 252 0T255 7Q269 9 279 12T291 24T289 45T268 81Q250 106 236 126Q230 134 225 142T214 157Q209 164 204 171L144
95Q112 55 113 34T159 7Q161 7 161 1T159 -5Q149 -4 143 -3T130 -1T116 0T94 0Q74 0 47 -1T5 -5Q3 -6 3 0T4 7Q15 8 27 12T53 26T83 52T121 95L193 186Q186 197 178 208Q171 218 163 230T145 255Q124 285 97 324Q76 354 53 372T3 392Q2 392 2 398T4 403Q11 402
23 401T48 400T74 399T98 399Q126 399 146 400T187 403Q190 404 190 398T187 392Q173 390 163 387T151 376T153 354T174 318L232 235L287 304Q302 322 310 337T318 363T307 382T272 392Q270 392 270 398T272 403Q282 402 289 401T303 400T319 399T342 399Q362 399
387 400T426 403Q428 404 428 398T427 392Q394 389 366 364T310 304L243 220L345 75Q366 45 389 27T439 7Z" />
<glyph unicode="y" glyph-name="y" horiz-adv-x="407" d="M439 392Q418 390 404 385T378 370T358 344T340 304Q334 288 320 255T286 175T246 75T207 -36T174 -149T153 -254Q140 -255 119 -255T85 -255Q64 -256 53 -256T23 -261Q20 -262 20 -256T22 -249Q41 -246
57 -237T84 -220Q103 -206 124 -173T165 -83L191 -12L82 304Q73 330 64 346T43 372T18 386T-16 392Q-18 392 -18 398T-15 403Q-8 402 5 401T32 400T60 399T86 399Q115 399 138 400T183 403Q185 404 185 398T183 392Q163 390 152 386T137 373T135 347T147 304L224
70L317 304Q327 329 330 345T330 371T313 385T281 392Q279 392 279 398T281 403Q302 401 317 400T361 399Q383 399 403 400T438 403Q440 404 440 398T439 392Z" />
<glyph unicode="z" glyph-name="z" horiz-adv-x="410" d="M388 142Q388 134 385 114T379 72T371 32T366 8Q364 0 362 -1T352 -3Q343 -3 328 -3T295 -2T257 -1T218 0Q164 0 116 -1T29 -4Q27 -5 26 -2T26 4L286 380H176Q147 380 127 373T94 352T73 319T57 276Q57
275 52 276T47 279Q47 281 48 288T51 304T54 324T57 343Q59 362 60 379T62 403Q74 402 90 402T124 401T161 400T196 399Q250 399 293 400T375 403Q377 403 378 400T378 394L119 21H255Q281 21 302 31T338 57T364 96T377 143Q377 144 382 144T388 142Z" />
<glyph unicode="{" glyph-name="braceleft" horiz-adv-x="310" d="M287 -310Q292 -312 290 -319T285 -325Q241 -310 209 -290T156 -248T125 -202T115 -156Q115 -132 124 -107T144 -57T165 -4T174 51Q174 81 168 107T145 154T103 187T36 203Q29 204 29 210T36 217Q76
221 102 234T145 267T167 313T174 370Q174 398 165 425T145 477T124 528T115 577Q115 599 125 622T156 668T209 711T285 746Q287 747 289 741T287 732Q242 714 216 685T190 628Q190 606 196 583T209 533T223 476T230 413Q230 344 191 288T67 210Q106 202 136 183T188
136T219 75T230 8Q230 -25 224 -55T210 -111T196 -161T190 -207Q190 -234 216 -263T287 -310Z" />
<glyph unicode="|" glyph-name="bar" horiz-adv-x="761" d="M772 631Q776 629 775 624T771 620Q759 622 749 623T725 624Q665 624 613 589T522 493T461 355T438 192V167Q438 111 439 80T450 33T477 13T531 5Q533 4 534 -2T531 -7Q508 -4 475 -2T410 0Q367 0 333
-1T267 -7Q262 -8 263 -2T266 5Q299 8 318 12T346 32T358 78T360 167V192Q360 285 336 363T271 499T177 589T67 622Q56 622 48 622T31 620Q29 619 28 624T30 631Q55 640 79 644T127 648Q181 648 228 625T312 563T375 472T415 362Q433 421 463 472T531 561T613 620T706
642Q723 642 739 640T772 631Z" />
<glyph unicode="}" glyph-name="braceright" horiz-adv-x="310" d="M274 203Q234 200 208 187T165 154T143 108T136 51Q136 23 145 -4T165 -56T186 -107T195 -156Q195 -178 185 -201T153 -247T100 -290T25 -325Q23 -326 21 -319T23 -310Q68 -292 94 -263T120 -207Q120
-185 114 -162T100 -112T86 -55T80 8Q80 42 90 75T122 135T173 182T243 210Q159 232 120 288T80 413Q80 446 86 476T99 532T113 582T120 628Q120 655 94 684T23 732Q18 734 20 740T25 746Q68 731 100 711T153 669T184 623T195 577Q195 553 186 528T166 478T145
425T136 370Q136 340 142 314T165 267T207 234T274 217Q281 217 281 211T274 203Z" />
<glyph unicode="~" glyph-name="asciitilde" horiz-adv-x="359" d="M339 368Q335 326 313 301T252 275Q234 275 216 281T178 294T139 308T97 314Q75 314 58 299T33 246Q33 244 27 246T20 250Q25 297 51 322T119 348Q135 348 153 343T190 330T228 318T265 312Q287
312 302 323T326 373Q327 374 333 372T339 368Z" />
</font>
</defs>
</svg>
